<svg width="93" height="93" viewBox="0 0 93 93" fill="none" xmlns="http://www.w3.org/2000/svg">
<rect width="93" height="93" rx="24" fill="white"/>
<path d="M25.1665 27.1667H31.23C31.9799 27.1667 32.3549 27.1667 32.6261 27.3785C32.8974 27.5903 32.9883 27.9541 33.1702 28.6817L34.5757 34.3036C34.9395 35.7587 35.1214 36.4862 35.6639 36.9098C36.2064 37.3334 36.9564 37.3334 38.4563 37.3334H40.4165" stroke="#FE724C" stroke-width="2" stroke-linecap="round"/>
<path d="M60.75 60.2083H33.0249C31.7586 60.2083 31.1255 60.2083 30.8262 59.793C30.5269 59.3777 30.7271 58.777 31.1275 57.5758L31.88 55.3183C32.32 53.9983 32.54 53.3383 33.0638 52.9608C33.5875 52.5833 34.2833 52.5833 35.6747 52.5833H50.5833" stroke="#FE724C" stroke-width="2" stroke-linecap="round" stroke-linejoin="round"/>
<path d="M55.736 52.5833H38.7217C37.1033 52.5833 36.2942 52.5833 35.7347 52.1093C35.1752 51.6353 35.0422 50.8372 34.7761 49.2408L33.3737 40.8264C33.1034 39.2049 32.9683 38.3941 33.4177 37.8637C33.867 37.3333 34.689 37.3333 36.3329 37.3333H62.5971C64.0475 37.3333 64.7727 37.3333 65.0658 37.8075C65.3589 38.2818 65.0346 38.9304 64.386 40.2277L59.3137 50.3721L59.3137 50.3721C58.7758 51.4479 58.5069 51.9859 58.0236 52.2846C57.5403 52.5833 56.9389 52.5833 55.736 52.5833Z" stroke="#FE724C" stroke-width="2" stroke-linecap="round"/>
<circle cx="58.2082" cy="67.8334" r="2.54167" fill="#FE724C"/>
<circle cx="37.8752" cy="67.8334" r="2.54167" fill="#FE724C"/>
</svg>
