<svg width="34" height="33" viewBox="0 0 34 33" fill="none" xmlns="http://www.w3.org/2000/svg">
<path d="M16.958 0.807861C12.691 0.807861 8.59863 2.503 5.58137 5.52025C2.56411 8.53751 0.869141 12.6298 0.869141 16.8968C0.869141 21.1639 2.56411 25.2562 5.58137 28.2734C8.59863 31.2907 12.691 32.9857 16.958 32.9857C21.2251 32.9857 25.3175 31.2907 28.3347 28.2734C31.352 25.2562 33.0469 21.1639 33.0469 16.8968C33.0469 12.6298 31.352 8.53751 28.3347 5.52025C25.3175 2.503 21.2251 0.807861 16.958 0.807861ZM22.9757 12.1373L20.6862 19.9314C20.6387 20.0941 20.5508 20.2423 20.4311 20.3623C20.3113 20.4823 20.1633 20.5703 20.0007 20.6181L12.1998 22.9144C12.0239 22.9662 11.8376 22.9695 11.66 22.9236C11.4825 22.8778 11.3207 22.7848 11.1918 22.6543C11.063 22.5238 10.972 22.3607 10.9284 22.1826C10.8849 22.0045 10.8905 21.818 10.9447 21.6428L13.3276 13.9301C13.3762 13.7725 13.4625 13.6292 13.5791 13.5126C13.6957 13.396 13.8393 13.3096 13.9969 13.261L21.7041 10.8847C21.879 10.8308 22.065 10.8253 22.2428 10.8687C22.4206 10.9122 22.5833 11.0029 22.7136 11.1313C22.844 11.2597 22.9372 11.4211 22.9833 11.5982C23.0294 11.7754 23.027 11.9616 22.9757 12.1373Z" fill="#F08D18"/>
</svg>
